<svg xmlns="http://www.w3.org/2000/svg" xmlns:xlink="http://www.w3.org/1999/xlink" xmlns:inkscape="http://www.inkscape.org/namespaces/inkscape" version="1.1" width="538.62" height="159.54" viewBox="0 0 538.62 159.54">
<path transform="matrix(1,0,0,-1,269.30799,79.77199)" d="M16.55093 43.99467C14.67181 51.00752 7.26024 56.69356 0 56.69356-7.26024 56.69356-14.67181 51.00752-16.55093 43.99467-19.87871 49.96837-27.9545 53.4595-34.58594 51.79121-41.21736 50.12306-46.68484 43.22493-46.78987 36.38771-50.98985 40.28923-58.33304 40.98155-63.18866 37.93446-68.04436 34.8874-70.62564 27.9676-68.93916 22.48872-73.28798 23.646-78.63315 21.42043-80.87656 17.51932-83.1199 13.61818-82.35541 7.87776-79.16782 4.70116-82.91188 2.91241-85.33206-1.84549-84.57332-5.92494-83.8146-10.00435-79.84525-13.57597-75.70848-13.89896-78.19855-18.32198-77.27515-24.78622-73.64732-28.33623-70.01932-31.88615-63.5243-32.68126-59.15631-30.09569-59.9651-36.39273-55.85818-43.45258-49.98505-45.86362-44.11201-48.27469-36.22694-46.13774-32.37794-41.08887-31.36386-48.16884-24.78304-54.60056-17.68184-55.45349-10.58064-56.30641-2.66182-51.61592 0-44.97746 2.66182-51.61592 10.57848-56.3064 17.67967-55.45348 24.78085-54.60054 31.36386-48.16884 32.37794-41.08887 36.22694-46.13774 44.10968-48.27621 49.9827-45.86514 55.85585-43.4541 59.9651-36.39273 59.15631-30.09569 63.5243-32.68126 70.00694-31.89867 73.63495-28.34874 77.26277-24.79874 78.19855-18.32198 75.70848-13.89896 79.84525-13.57597 83.81407-10.00606 84.5728-5.92665 85.33153-1.84718 82.91188 2.91241 79.16782 4.70116 82.35541 7.87776 83.12057 13.61697 80.87723 17.5181 78.63382 21.41922 73.28798 23.646 68.93916 22.48872 70.62564 27.9676 68.05522 34.88087 63.19952 37.92793 58.3439 40.975 50.98985 40.28923 46.78987 36.38771 46.68484 43.22493 41.2213 50.1211 34.58987 51.78926 27.95844 53.45753 19.87871 49.96837 16.55093 43.99467Z" fill="#f2f2ff"/>
<path transform="matrix(1,0,0,-1,269.30799,79.77199)" stroke-width=".79701" stroke-linecap="butt" stroke-miterlimit="10" stroke-linejoin="miter" fill="none" stroke="#8080ff" d="M16.55093 43.99467C14.67181 51.00752 7.26024 56.69356 0 56.69356-7.26024 56.69356-14.67181 51.00752-16.55093 43.99467-19.87871 49.96837-27.9545 53.4595-34.58594 51.79121-41.21736 50.12306-46.68484 43.22493-46.78987 36.38771-50.98985 40.28923-58.33304 40.98155-63.18866 37.93446-68.04436 34.8874-70.62564 27.9676-68.93916 22.48872-73.28798 23.646-78.63315 21.42043-80.87656 17.51932-83.1199 13.61818-82.35541 7.87776-79.16782 4.70116-82.91188 2.91241-85.33206-1.84549-84.57332-5.92494-83.8146-10.00435-79.84525-13.57597-75.70848-13.89896-78.19855-18.32198-77.27515-24.78622-73.64732-28.33623-70.01932-31.88615-63.5243-32.68126-59.15631-30.09569-59.9651-36.39273-55.85818-43.45258-49.98505-45.86362-44.11201-48.27469-36.22694-46.13774-32.37794-41.08887-31.36386-48.16884-24.78304-54.60056-17.68184-55.45349-10.58064-56.30641-2.66182-51.61592 0-44.97746 2.66182-51.61592 10.57848-56.3064 17.67967-55.45348 24.78085-54.60054 31.36386-48.16884 32.37794-41.08887 36.22694-46.13774 44.10968-48.27621 49.9827-45.86514 55.85585-43.4541 59.9651-36.39273 59.15631-30.09569 63.5243-32.68126 70.00694-31.89867 73.63495-28.34874 77.26277-24.79874 78.19855-18.32198 75.70848-13.89896 79.84525-13.57597 83.81407-10.00606 84.5728-5.92665 85.33153-1.84718 82.91188 2.91241 79.16782 4.70116 82.35541 7.87776 83.12057 13.61697 80.87723 17.5181 78.63382 21.41922 73.28798 23.646 68.93916 22.48872 70.62564 27.9676 68.05522 34.88087 63.19952 37.92793 58.3439 40.975 50.98985 40.28923 46.78987 36.38771 46.68484 43.22493 41.2213 50.1211 34.58987 51.78926 27.95844 53.45753 19.87871 49.96837 16.55093 43.99467Z"/>
<text xml:space="preserve" transform="matrix(1 0 -0 1 20.407986 65.50299)" font-size="17.9327" font-family="Angsana New" font-weight="bold"><tspan y="7.769" x="197.308 203.56652 209.84296 217.76921 225.69547 232.94028 239.8085 244.90139 251.35715 258.11778 261.68638 265.63157 274.18547 277.46714 283.38493 289.96623 296.54753">&#x0e23;&#x0e30;&#x0e1a;&#x0e1a;&#x0e04;&#x0e25;&#x0e32;&#x0e27;&#x0e14;&#x0e4c;(Cloud)</tspan></text>
<path transform="matrix(1,0,0,-1,269.30799,79.77199)" d="M31.4484-5.01352H-31.4484C-33.64934-5.01352-35.4335-6.79768-35.4335-8.99863V-44.28162C-35.4335-46.48256-33.64934-48.26672-31.4484-48.26672H31.4484C33.64934-48.26672 35.4335-46.48256 35.4335-44.28162V-8.99863C35.4335-6.79768 33.64934-5.01352 31.4484-5.01352ZM-35.4335-48.26672" fill="#e6ffe6"/>
<path transform="matrix(1,0,0,-1,269.30799,79.77199)" stroke-width=".79701" stroke-linecap="butt" stroke-miterlimit="10" stroke-linejoin="miter" fill="none" stroke="#009900" d="M31.4484-5.01352H-31.4484C-33.64934-5.01352-35.4335-6.79768-35.4335-8.99863V-44.28162C-35.4335-46.48256-33.64934-48.26672-31.4484-48.26672H31.4484C33.64934-48.26672 35.4335-46.48256 35.4335-44.28162V-8.99863C35.4335-6.79768 33.64934-5.01352 31.4484-5.01352ZM-35.4335-48.26672"/>
<text xml:space="preserve" transform="matrix(1 0 -0 1 47.439989 115.953998)" font-size="14.3462" font-family="Font Awesome 5 Brands Regular"><tspan y="-16.141" x="215.592">&#xfffd;</tspan></text>
<text xml:space="preserve" transform="matrix(1 0 -0 1 47.439989 115.953998)" font-size="12.4533" font-family="Angsana New" font-weight="bold"><tspan y="-4.186001" x="200.976 206.91623 209.65596 213.76555 218.3359 222.4455 228.60988 234.55011 239.56879">DjangoAPI</tspan></text>
<text xml:space="preserve" transform="matrix(1 0 -0 1 47.439989 115.953998)" font-size="9.9626" font-family="Angsana New"><tspan y="7.768999" x="197.308 199.49977 203.88332 207.89824 211.55452 215.56945 217.76122 221.04888 224.51586 228.17214 231.09117 233.28295 236.5706 238.39376 241.31279 244.23183">(RESTfulService)</tspan></text>
<path transform="matrix(1,0,0,-1,270.71995,81.183948)" d="M-188.854 29.9826H-263.9317C-266.68287 29.9826-268.91307 27.75241-268.91307 25.00122V-24.9999C-268.91307-27.75107-266.68287-29.98128-263.9317-29.98128H-188.854C-186.10283-29.98128-183.87262-27.75107-183.87262-24.9999V25.00122C-183.87262 27.75241-186.10283 29.9826-188.854 29.9826ZM-268.91307-29.98128" fill="#7f807f" fill-opacity=".5"/>
<path transform="matrix(1,0,0,-1,269.30799,79.77199)" d="M-188.854 29.9826H-263.9317C-266.68287 29.9826-268.91307 27.75241-268.91307 25.00122V-24.9999C-268.91307-27.75107-266.68287-29.98128-263.9317-29.98128H-188.854C-186.10283-29.98128-183.87262-27.75107-183.87262-24.9999V25.00122C-183.87262 27.75241-186.10283 29.9826-188.854 29.9826ZM-268.91307-29.98128" fill="#ffffff"/>
<path transform="matrix(1,0,0,-1,269.30799,79.77199)" stroke-width=".79701" stroke-linecap="butt" stroke-miterlimit="10" stroke-linejoin="miter" fill="none" stroke="#b2b3b2" d="M-188.854 29.9826H-263.9317C-266.68287 29.9826-268.91307 27.75241-268.91307 25.00122V-24.9999C-268.91307-27.75107-266.68287-29.98128-263.9317-29.98128H-188.854C-186.10283-29.98128-183.87262-27.75107-183.87262-24.9999V25.00122C-183.87262 27.75241-186.10283 29.9826-188.854 29.9826ZM-268.91307-29.98128"/>
<text xml:space="preserve" transform="matrix(1 0 -0 1 -186.57503 97.66899)" font-size="24.7871" font-family="Font Awesome 5 Free Solid"><tspan y="-22.869" x="217.096">&#xfffd;</tspan></text>
<text xml:space="preserve" transform="matrix(1 0 -0 1 -186.57503 97.66899)" font-size="12.4533" font-family="Angsana New" font-weight="bold"><tspan y="-9.707999" x="201.965">&#x0e2d;</tspan><tspan y="-9.586999" x="206.739">&#x0e38;</tspan><tspan y="-9.707999" x="206.736 212.26526 217.03487 221.38108 227.70735 228.13077 232.7883 236.32505 239.92406 240.67125 245.78955 250.22293 254.70612 258.3051">&#x0e1b;&#x0e01;&#x0e23;&#x0e13;&#x0e4c;&#x0e2e;&#x0e32;&#x0e23;&#x0e4c;&#x0e14;&#x0e41;&#x0e27;&#x0e23;&#x0e4c;</tspan></text>
<text xml:space="preserve" transform="matrix(1 0 -0 1 -186.57503 97.66899)" font-size="9.9626" font-family="Angsana New"><tspan y="7.769" x="197.308 201.69155 205.34783 208.8148 213.74629 219.0962 223.47975 227.13603 229.3278 235.7238 237.91558 241.57186 247.4199 249.61168 252.89934 256.18699 259.47465">RPi5+RFID(FM-505)</tspan></text>
<path transform="matrix(1,0,0,-1,270.71995,81.183948)" d="M263.93055 79.37167H188.85285C186.10167 79.37167 183.87146 77.14148 183.87146 74.39029V27.65944C183.87146 24.90826 186.10167 22.67805 188.85285 22.67805H263.93055C266.6817 22.67805 268.9119 24.90826 268.9119 27.65944V74.39029C268.9119 77.14148 266.6817 79.37167 263.93055 79.37167ZM183.87146 22.67805" fill="#7f807f" fill-opacity=".5"/>
<path transform="matrix(1,0,0,-1,269.30799,79.77199)" d="M263.93055 79.37167H188.85285C186.10167 79.37167 183.87146 77.14148 183.87146 74.39029V27.65944C183.87146 24.90826 186.10167 22.67805 188.85285 22.67805H263.93055C266.6817 22.67805 268.9119 24.90826 268.9119 27.65944V74.39029C268.9119 77.14148 266.6817 79.37167 263.93055 79.37167ZM183.87146 22.67805" fill="#ffffff"/>
<path transform="matrix(1,0,0,-1,269.30799,79.77199)" stroke-width=".79701" stroke-linecap="butt" stroke-miterlimit="10" stroke-linejoin="miter" fill="none" stroke="#b2b3b2" d="M263.93055 79.37167H188.85285C186.10167 79.37167 183.87146 77.14148 183.87146 74.39029V27.65944C183.87146 24.90826 186.10167 22.67805 188.85285 22.67805H263.93055C266.6817 22.67805 268.9119 24.90826 268.9119 27.65944V74.39029C268.9119 77.14148 266.6817 79.37167 263.93055 79.37167ZM183.87146 22.67805"/>
<text xml:space="preserve" transform="matrix(1 0 -0 1 266.62397 45.78899)" font-size="24.7871" font-family="Font Awesome 5 Free Solid"><tspan y="-20.182" x="215.133">&#xfffd;</tspan></text>
<text xml:space="preserve" transform="matrix(1 0 -0 1 266.62397 45.78899)" font-size="12.4533" font-family="Angsana New" font-weight="bold"><tspan y="-7.020999" x="199.36299 205.11641 210.29698 210.84493 214.38167 216.54854 221.10645 221.04418 226.54854 230.98192 236.10022 241.1189 246.62326 251.39287 254.96697 255.72663">&#x0e2b;&#x0e19;&#x0e49;&#x0e32;&#x0e40;&#x0e27;&#x0e47;&#x0e1a;&#x0e41;&#x0e14;&#x0e0a;&#x0e1a;&#x0e2d;&#x0e23;&#x0e4c;&#x0e14;</tspan></text>
<text xml:space="preserve" transform="matrix(1 0 -0 1 266.62397 45.78899)" font-size="9.9626" font-family="Angsana New"><tspan y="7.769001" x="202.855 207.33817 210.21736 210.74538 215.3979 218.23725 221.64446 225.48006 225.19115 229.1762 233.12139 235.96073 239.36794 242.77515 246.34175 250.82492">&#x0e1a;&#x0e23;&#x0e34;&#x0e2b;&#x0e32;&#x0e23;&#x0e08;&#x0e31;&#x0e14;&#x0e01;&#x0e32;&#x0e23;&#x0e23;&#x0e30;&#x0e1a;&#x0e1a;</tspan></text>
<path transform="matrix(1,0,0,-1,270.71995,81.183948)" d="M263.93055-22.67703H188.85285C186.10167-22.67703 183.87146-24.90723 183.87146-27.65842V-74.38927C183.87146-77.14044 186.10167-79.37065 188.85285-79.37065H263.93055C266.6817-79.37065 268.9119-77.14044 268.9119-74.38927V-27.65842C268.9119-24.90723 266.6817-22.67703 263.93055-22.67703ZM183.87146-79.37065" fill="#7f807f" fill-opacity=".5"/>
<path transform="matrix(1,0,0,-1,269.30799,79.77199)" d="M263.93055-22.67703H188.85285C186.10167-22.67703 183.87146-24.90723 183.87146-27.65842V-74.38927C183.87146-77.14044 186.10167-79.37065 188.85285-79.37065H263.93055C266.6817-79.37065 268.9119-77.14044 268.9119-74.38927V-27.65842C268.9119-24.90723 266.6817-22.67703 263.93055-22.67703ZM183.87146-79.37065" fill="#ffffff"/>
<path transform="matrix(1,0,0,-1,269.30799,79.77199)" stroke-width=".79701" stroke-linecap="butt" stroke-miterlimit="10" stroke-linejoin="miter" fill="none" stroke="#b2b3b2" d="M263.93055-22.67703H188.85285C186.10167-22.67703 183.87146-24.90723 183.87146-27.65842V-74.38927C183.87146-77.14044 186.10167-79.37065 188.85285-79.37065H263.93055C266.6817-79.37065 268.9119-77.14044 268.9119-74.38927V-27.65842C268.9119-24.90723 266.6817-22.67703 263.93055-22.67703ZM183.87146-79.37065"/>
<text xml:space="preserve" transform="matrix(1 0 -0 1 265.606 147.234)" font-size="24.7871" font-family="Font Awesome 5 Free Solid"><tspan y="-18.976" x="222.348">&#xfffd;</tspan></text>
<text xml:space="preserve" transform="matrix(1 0 -0 1 265.606 147.234)" font-size="12.4533" font-family="Angsana New" font-weight="bold"><tspan y="-7.021" x="199.363 203.79639 208.566 214.09526 220.2472 225.10398 225.02925 227.19612 232.22725 236.9595 237.23348 242.96199 248.16748 248.37918 253.14879 257.8935 258.1052">&#x0e41;&#x0e2d;&#x0e1b;&#x0e1e;&#x0e25;&#x0e34;&#x0e40;&#x0e04;&#x0e0a;&#x0e31;&#x0e19;&#x0e21;&#x0e37;&#x0e2d;&#x0e16;&#x0e37;&#x0e2d;</tspan></text>
<text xml:space="preserve" transform="matrix(1 0 -0 1 265.606 147.234)" font-size="9.9626" font-family="Angsana New"><tspan y="7.769" x="199.511 203.50601 206.91323 210.43999 213.97672 218.36026 222.28553 226.76869 230.7637 231.15224 235.73503 240.02892 239.71012 242.54946 246.51457 249.65279 253.6179 257.8819 257.55314">&#x0e15;&#x0e23;&#x0e27;&#x0e08;&#x0e2a;&#x0e2d;&#x0e1a;&#x0e2a;&#x0e34;&#x0e19;&#x0e04;&#x0e49;&#x0e32;&#x0e04;&#x0e07;&#x0e04;&#x0e25;&#x0e31;&#x0e07;</tspan></text>
<path transform="matrix(1,0,0,-1,269.30799,79.77199)" stroke-width=".79701" stroke-linecap="butt" stroke-miterlimit="10" stroke-linejoin="miter" fill="none" stroke="#999999" d="M-183.47412 .00066H-90.43716"/>
<path transform="matrix(1,0,0,-1,178.87082,79.771327)" d="M4.53381 0C3.97704 .13808 1.52963 .92049 0 1.77196V-1.77196C1.52963-.92049 3.97704-.13808 4.53381 0Z" fill="#999999"/>
<path transform="matrix(1,0,0,-1,178.87082,79.771327)" stroke-width=".79701" stroke-linecap="butt" stroke-miterlimit="10" stroke-linejoin="miter" fill="none" stroke="#999999" d="M4.53381 0C3.97704 .13808 1.52963 .92049 0 1.77196V-1.77196C1.52963-.92049 3.97704-.13808 4.53381 0Z"/>
<text fill="#737373" xml:space="preserve" transform="matrix(1 0 -0 1 -97.10501 66.24999)" font-size="9.9626" font-family="Angsana New"><tspan y="7.769" x="197.308">&#x0e2a;</tspan><tspan y="7.699" x="201.353">&#x0e48;</tspan><tspan y="7.769" x="201.691 204.82921 209.1231 208.80429 212.72956 216.86403 216.90389 222.48294 224.67472 229.42688 233.4418 237.45673 241.113 246.41312 249.8801 252.44049 256.09678 260.84895 265.6011">&#x0e07;&#x0e02;&#x0e49;&#x0e2d;&#x0e21;&#x0e39;&#x0e25;(HTTPS/JSON)</tspan></text>
<path transform="matrix(1,0,0,-1,269.30799,79.77199)" stroke-width=".79701" stroke-linecap="butt" stroke-miterlimit="10" stroke-linejoin="miter" fill="none" stroke="#999999" d="M85.05609 51.02487H182.67595"/>
<path transform="matrix(-1,-0,0,1,353.96559,28.747117)" stroke-width=".79701" stroke-linecap="round" stroke-linejoin="round" fill="none" stroke="#999999" d="M-2.55046 3.11095C-2.0845 1.24435-1.04614 .36295 0 0-1.04614-.36295-2.0845-1.24435-2.55046-3.11095"/>
<path transform="matrix(1,0,0,-1,452.38246,28.747117)" stroke-width=".79701" stroke-linecap="round" stroke-linejoin="round" fill="none" stroke="#999999" d="M-2.55046 3.11095C-2.0845 1.24435-1.04614 .36295 0 0-1.04614-.36295-2.0845-1.24435-2.55046-3.11095"/>
<text fill="#737373" xml:space="preserve" transform="matrix(1 0 -0 1 174.88799 15.22599)" font-size="9.9626" font-family="Angsana New"><tspan y="7.769" x="197.308 200.61559 200.71521 205.19838 207.39015">&#x0e23;&#x0e31;&#x0e1a;-&#x0e2a;</tspan><tspan y="7.699" x="211.43199">&#x0e48;</tspan><tspan y="7.769" x="211.76999 214.9082 219.20209 218.88329 222.80855 226.94303 226.98288">&#x0e07;&#x0e02;&#x0e49;&#x0e2d;&#x0e21;&#x0e39;&#x0e25;</tspan></text>
<path transform="matrix(1,0,0,-1,269.30799,79.77199)" stroke-width=".79701" stroke-linecap="butt" stroke-miterlimit="10" stroke-linejoin="miter" fill="none" stroke="#999999" d="M85.05609-51.02383H182.67595"/>
<path transform="matrix(-1,-0,0,1,353.96559,130.79582)" stroke-width=".79701" stroke-linecap="round" stroke-linejoin="round" fill="none" stroke="#999999" d="M-2.55046 3.11095C-2.0845 1.24435-1.04614 .36295 0 0-1.04614-.36295-2.0845-1.24435-2.55046-3.11095"/>
<path transform="matrix(1,0,0,-1,452.38246,130.79582)" stroke-width=".79701" stroke-linecap="round" stroke-linejoin="round" fill="none" stroke="#999999" d="M-2.55046 3.11095C-2.0845 1.24435-1.04614 .36295 0 0-1.04614-.36295-2.0845-1.24435-2.55046-3.11095"/>
<text fill="#737373" xml:space="preserve" transform="matrix(1 0 -0 1 174.88799 117.27399)" font-size="9.9626" font-family="Angsana New"><tspan y="7.769" x="197.308 200.61559 200.71521 205.19838 207.39015">&#x0e23;&#x0e31;&#x0e1a;-&#x0e2a;</tspan><tspan y="7.699" x="211.43199">&#x0e48;</tspan><tspan y="7.769" x="211.76999 214.9082 219.20209 218.88329 222.80855 226.94303 226.98288">&#x0e07;&#x0e02;&#x0e49;&#x0e2d;&#x0e21;&#x0e39;&#x0e25;</tspan></text>
</svg>
